#N canvas 0 81 1366 687 10;
#X obj 71 51 timer;
#X floatatom -9 86 12 0 0 0 - - -;
#X floatatom 86 144 12 0 0 0 - - -;
#X obj 71 169 -;
#X obj 71 198 moses 0, f 15;
#X obj 71 229 * -1;
#X text 163 142 Lista de tempos;
#X floatatom 86 333 5 0 0 0 - - -;
#X obj 71 379 sel 1;
#X obj 71 357 <;
#X obj 13 409 bng 15 250 50 0 empty empty empty 17 7 0 10 -262144 -1
-1;
#X obj 157 420 bng 15 250 50 0 empty empty empty 17 7 0 10 -262144
-1 -1;
#X obj 13 454 f;
#X obj 157 477 f;
#X obj 71 264 t f f;
#X obj 98 288 s \$0-ErrVal;
#X obj 172 444 r \$0-ErrVal;
#X obj 28 429 r \$0-ErrVal;
#X obj 834 128 textfile;
#X msg 877 7 read seq-\$1.txt;
#X obj 834 285 print \$1-TextFile;
#X obj 900 82 bng 15 250 50 0 empty empty empty 17 7 0 10 -262144 -1
-1;
#X obj 561 -116 metro 1;
#X obj 693 110 f;
#X obj 693 138 + 1;
#X obj 693 172 sel;
#X msg 708 85 0;
#X obj 834 263 spigot;
#X obj 867 243 tgl 15 0 empty empty empty 17 7 0 10 -262144 -1 -1 0
1;
#X obj 86 311 r MaxErro;
#X obj 250 -422 tgl 60 0 empty empty empty 17 7 0 10 -262144 -1 -1
1 1;
#X msg 173 562 0;
#X obj 184 41 textfile;
#X msg 184 -53 read seq-\$1.txt;
#X obj 225 7 bng 15 250 50 0 empty empty empty 17 7 0 10 -262144 -1
-1;
#X obj 26 489 bng 15 250 50 0 empty empty empty 17 7 0 10 -262144 -1
-1;
#X obj 877 -33 f \$1;
#X obj 205 -28 r \$1-ListaIn;
#X obj -121 -302 bng 15 250 50 0 empty empty empty 17 7 0 10 -262144
-1 -1;
#X obj -121 -281 f \$1;
#X obj 71 -24 r \$1-TimerStart;
#X obj 173 601 s \$1-CertoState;
#X obj 909 38 r \$1-ListaOut;
#X obj 78 -419 bng 15 250 50 0 empty empty empty 17 7 0 10 -262144
-1 -1;
#X obj 78 -398 f \$1;
#X obj 759 -48 r \$1-CounterOut;
#X obj 744 84 bng 15 250 50 0 empty empty empty 17 7 0 10 -262144 -1
-1;
#X obj 157 633 print \$1-ERRADO;
#X obj 13 634 print \$1-CERTO;
#X obj -285 -224 r \$1-Hit;
#X obj -196 89 bng 15 250 50 0 empty empty empty 17 7 0 10 -262144
-1 -1;
#X obj 98 19 r \$1-HitTest;
#X obj 1032 -171 print \$1-DROPOUT;
#X msg 1105 -462 stop \, bang;
#X msg 1122 -432 bang;
#X msg 1125 -406 stop;
#X obj 1032 -535 r \$1-TestDropout;
#X msg 1052 -291 \; Relogio-\$1 0 \;;
#X obj 1052 -327 f \$1;
#X msg -196 137 \; \$1-ListaIn bang \; \$1-HitTest bang \; \$1-TestDropout
stop \; \$1-TestDropout bang \;;
#X obj -196 110 f \$1;
#X obj 877 -83 r LoadLists;
#X obj 78 -445 r \$1-SeqStart;
#X obj -148 -469 r \$1-SeqPrepare;
#X text 122 335 Valor de erro maximo (ms);
#X obj 269 -264 tabwrite relogios;
#X obj 302 -322 f \$1;
#X obj 302 -299 - 1;
#X obj 250 -357 t b f b;
#X obj 250 -239 s EstrelaTest;
#X obj 1032 -355 delay 666;
#X obj 184 70 + 1500;
#X obj 1032 -201 spigot;
#X obj 1065 -221 tgl 15 0 empty empty empty 17 7 0 10 -262144 -1 -1
1 1;
#X obj -441 2 bng 15 250 50 0 empty empty empty 17 7 0 10 -262144 -1
-1;
#X msg 879 186 \; \$1-TestDropout stop \; \$1-Finish bang \;;
#X obj 879 155 \$1;
#X obj 250 -449 r Relogio-SET-\$1;
#X obj 877 -60 sel 0;
#X obj 188 -87 f \$1;
#X obj 188 -137 r LoadLists;
#X obj 188 -114 sel 0;
#X obj 713 -326 mod 8;
#X obj 695 -369 - 2;
#X obj 646 -751 r BEAT;
#X obj 646 -275 sel;
#X obj 646 -136 s \$1-SeqPrepare;
#X obj 646 -482 t f b;
#X obj 668 -228 sel;
#X obj 696 -396 t f f;
#X obj 668 -174 s \$1-SeqStart;
#X obj 696 -419 f \$2;
#X obj 692 198 t b b;
#X obj 719 278 s \$1-ListaOut;
#X msg 692 387 \; \$1-Blink bang \;;
#X obj -196 56 spigot;
#X obj -148 -326 t b b;
#X msg -148 -120 1;
#X obj -131 -47 r \$1-Finish;
#X msg -131 8 0;
#X obj -131 -23 delay 667;
#X obj 1065 -246 loadbang;
#X obj 747 -356 r FullLenght;
#N canvas 41 126 824 641 AvaliaPerformance 0;
#X obj 346 -8 sel 1;
#X obj 283 136 f;
#X obj 283 164 + 1;
#X msg 354 118 0;
#X obj 327 64 r \$1-CounterOut;
#X floatatom 261 228 5 0 0 0 - - -;
#X obj 365 302 / 2;
#X obj 326 268 t f b f;
#X obj 295 304 f;
#X floatatom 365 360 12 0 0 0 - - -;
#X obj 320 333 /;
#X obj 281 422 bng 15 250 50 0 empty empty empty 17 7 0 10 -262144
-1 -1;
#X obj 320 578 tgl 15 0 empty empty empty 17 7 0 10 -262144 -1 -1 0
1;
#X obj 327 96 t b b;
#X obj 320 390 <;
#X obj 320 608 s Relogio-SET-\$1;
#N canvas 167 117 600 527 ContaHits 0;
#X obj 182 478 outlet;
#X obj 293 42 bng 30 250 50 0 empty empty empty 17 7 0 10 -262144 -1
-1;
#X obj 293 18 r \$1-Blink;
#X obj 293 162 f;
#X obj 293 190 + 1;
#X msg 308 137 0;
#X obj 308 106 r \$1-CounterOut;
#X obj 344 136 bng 15 250 50 0 empty empty empty 17 7 0 10 -262144
-1 -1;
#X obj 92 171 r \$1-Finish;
#X obj 183 384 f;
#X floatatom 248 438 5 0 0 0 - - -;
#X text 325 171 Conta cada hit do sequenciador;
#X text 66 146 No fim manda o numero de hits;
#X obj 196 248 r MaxErro;
#X obj 142 308 delay;
#X connect 1 0 3 0;
#X connect 2 0 1 0;
#X connect 3 0 4 0;
#X connect 4 0 3 1;
#X connect 4 0 9 1;
#X connect 5 0 3 1;
#X connect 6 0 5 0;
#X connect 6 0 7 0;
#X connect 8 0 14 0;
#X connect 9 0 10 0;
#X connect 9 0 0 0;
#X connect 13 0 14 1;
#X connect 14 0 9 0;
#X restore 326 231 pd ContaHits;
#X text 207 12 Hits correctos;
#X text 411 230 Hits Totais;
#X text 348 385 Compara os hits Totais com os certos para ter uma avaliaçao
total.;
#X text 425 66 Reset do contador;
#X obj 305 12 bng 15 250 50 0 empty empty empty 17 7 0 10 -262144 -1
-1;
#X floatatom 220 368 12 0 0 0 - - -;
#X floatatom 405 263 5 0 0 0 - - -;
#X obj 365 482 r EasyMode;
#X obj 365 505 == 0;
#X obj 283 187 t f f;
#X obj 190 504 spigot;
#X obj 223 453 r EasyMode;
#X obj 320 533 spigot 1;
#X obj 31 206 r \$1-Hit;
#X obj 31 229 t b b;
#X msg 96 276 1;
#X msg 31 326 0;
#X obj 346 -31 r \$1-CertoState;
#X obj 547 139 f;
#X obj 547 167 + 1;
#X msg 618 121 0;
#X obj 591 67 r \$1-CounterOut;
#X floatatom 608 244 5 0 0 0 - - -;
#X obj 591 99 t b b;
#X obj 547 190 t f f;
#X obj 412 21 bng 15 250 50 0 empty empty empty 17 7 0 10 -262144 -1
-1;
#X text 436 19 Hits Errados;
#X obj 547 262 > 3;
#X floatatom 378 428 5 0 0 0 - - -;
#X obj 320 423 -;
#X obj 314 457 max 0;
#X text 577 269 Se forem Muitos Errados Perde;
#X obj 31 303 delay 80;
#X connect 0 0 1 0;
#X connect 0 0 21 0;
#X connect 0 1 42 0;
#X connect 1 0 2 0;
#X connect 2 0 1 1;
#X connect 2 0 26 0;
#X connect 3 0 1 1;
#X connect 4 0 13 0;
#X connect 6 0 9 0;
#X connect 7 0 10 0;
#X connect 7 1 8 0;
#X connect 7 2 6 0;
#X connect 8 0 10 1;
#X connect 9 0 14 1;
#X connect 10 0 14 0;
#X connect 10 0 22 0;
#X connect 12 0 15 0;
#X connect 13 0 1 0;
#X connect 13 1 3 0;
#X connect 14 0 11 0;
#X connect 14 0 45 0;
#X connect 14 0 46 0;
#X connect 16 0 7 0;
#X connect 16 0 23 0;
#X connect 24 0 25 0;
#X connect 25 0 29 1;
#X connect 26 0 5 0;
#X connect 26 1 8 1;
#X connect 27 0 12 0;
#X connect 28 0 27 1;
#X connect 29 0 12 0;
#X connect 30 0 31 0;
#X connect 31 0 49 0;
#X connect 31 1 32 0;
#X connect 32 0 27 0;
#X connect 33 0 27 0;
#X connect 34 0 0 0;
#X connect 35 0 36 0;
#X connect 36 0 35 1;
#X connect 36 0 41 0;
#X connect 37 0 35 1;
#X connect 38 0 40 0;
#X connect 40 0 35 0;
#X connect 40 1 37 0;
#X connect 41 0 44 0;
#X connect 41 1 39 0;
#X connect 42 0 35 0;
#X connect 44 0 46 1;
#X connect 46 0 47 0;
#X connect 47 0 29 0;
#X connect 49 0 33 0;
#X restore -308 455 pd AvaliaPerformance;
#X text 234 64 Offset do tempo para poder testar o primeiro hit se
for antes do inicio da frase;
#X text 755 -330 Nomalmente 8;
#X text 751 -309 Com 3 jogadores é 6;
#X text 891 128 Carrega a sequencia para Piscar;
#X text -84 -286 Prepara a Sequencia;
#X text -117 -119 Abre o input de Hits;
#X text 1010 197 Acaba a Sequencia;
#X obj -240 -131 tgl 15 0 empty empty empty 17 7 0 10 -262144 -1 -1
1 1;
#X obj 692 345 f \$1;
#X obj -285 -111 spigot 1;
#X obj 772 -558 r PlayersNumber;
#X obj 772 -512 sel 1;
#X obj 825 -471 bang;
#X floatatom 801 -213 5 0 0 0 - - -;
#X floatatom 609 -478 5 0 0 0 - - -;
#X obj 715 -275 + 0;
#X msg 825 -439 0;
#X msg 751 -415 4;
#X obj 684 -204 bng 15 250 50 0 empty empty empty 17 7 0 10 -262144
-1 -1;
#X obj 610 -228 bng 15 250 50 0 empty empty empty 17 7 0 10 -262144
-1 -1;
#X obj -296 -45 bng 15 250 50 0 empty empty empty 17 7 0 10 -262144
-1 -1;
#X obj -148 33 tgl 15 0 empty empty empty 17 7 0 10 -262144 -1 -1 0
1;
#X obj 782 -478 \$1;
#X msg 793 -415 0;
#X obj 782 -449 sel 2;
#X text 753 -285 Com 2 jogadores é 4;
#X text 819 -507 Se forem 2 jogadores;
#X obj 797 201 bng 15 250 50 0 empty empty empty 17 7 0 10 -262144
-1 -1;
#X msg -121 -257 \; \$1-Finish stop \; \$1-TestDropout stop \; \$1-ListaIn
rewind \; \$1-CertoState 1 \; \$1-TimerStart bang \;;
#X msg 78 -373 \; \$1-ListaOut rewind \; \$1-ListaOut bang \; \$1-TestDropout
bang \; \$1-CounterOut bang \;;
#X obj 667 29 spigot;
#X obj 759 -25 t b b;
#X msg 720 17 1;
#X obj 759 -94 r \$1-Finish;
#X msg 716 -50 0;
#X obj 693 -99 r ON;
#X obj 693 -76 sel 0;
#X obj -240 -180 r EasyMode;
#X obj -240 -156 == 0;
#X obj 606 -24 tgl 15 0 empty empty empty 17 7 0 10 -262144 -1 -1 1
1;
#X obj 561 -4 spigot 1;
#X obj 606 -73 r EasyMode;
#X obj 606 -49 == 0;
#X obj 691 -567 tgl 15 0 empty empty empty 17 7 0 10 -262144 -1 -1
1 1;
#X obj 646 -547 spigot 1;
#X obj 691 -616 r EasyMode;
#X obj 691 -592 == 0;
#X obj 1032 -492 spigot;
#X text 1014 -573 Desligàmos o dropout para ficar mais facil;
#X obj 1068 -512 tgl 15 0 empty empty empty 17 7 0 10 -262144 -1 -1
0 1;
#X text 188 476 Se Hit for ERRADO Manda 0 para o Relogio e para o CertoState
;
#X text -258 522 Se o Hit for certo mas ja algum for errado;
#X obj 173 513 bang;
#X obj 26 566 s \$1-CertoState;
#X msg 26 527 1;
#X obj 544 -905 bng 15 250 50 0 empty empty empty 17 7 0 10 -262144
-1 -1;
#X text 765 -620 Se esta no EasyMode;
#X text 726 -592 Nao recebe o BEAT;
#X obj 691 -663 tgl 15 0 empty empty empty 17 7 0 10 -262144 -1 -1
0 1;
#X obj 646 -643 spigot 1;
#X obj 691 -688 == 0;
#X text 725 -689 Nao recebe o BEAT;
#X text 793 -713 Se venceu;
#X obj 691 -712 r Relogio-SET-\$1;
#X obj 566 -197 r ON;
#X obj 448 -393 r BEAT;
#X msg 448 -370 1;
#X obj 419 -232 change;
#X obj 505 -286 sel 0;
#X msg 516 -255 0;
#X obj 434 -264 spigot;
#X obj 485 -347 t f f;
#X obj 561 -157 tgl 15 0 empty empty empty 17 7 0 10 -262144 -1 -1
1 1;
#X obj 461 -312 tgl 15 0 empty empty empty 17 7 0 10 -262144 -1 -1
1 1;
#X connect 0 0 1 0;
#X connect 0 0 3 0;
#X connect 2 0 3 1;
#X connect 3 0 4 0;
#X connect 4 0 5 0;
#X connect 4 1 14 0;
#X connect 5 0 14 0;
#X connect 7 0 9 1;
#X connect 8 0 10 0;
#X connect 8 1 11 0;
#X connect 9 0 8 0;
#X connect 10 0 12 0;
#X connect 11 0 13 0;
#X connect 12 0 35 0;
#X connect 12 0 48 0;
#X connect 13 0 47 0;
#X connect 13 0 156 0;
#X connect 14 0 9 0;
#X connect 14 1 15 0;
#X connect 16 0 13 1;
#X connect 17 0 12 1;
#X connect 18 0 25 1;
#X connect 18 0 27 0;
#X connect 18 1 76 0;
#X connect 19 0 18 0;
#X connect 21 0 18 0;
#X connect 22 0 144 0;
#X connect 23 0 24 0;
#X connect 24 0 23 1;
#X connect 24 0 25 0;
#X connect 25 0 92 0;
#X connect 26 0 23 1;
#X connect 27 0 20 0;
#X connect 28 0 27 1;
#X connect 29 0 7 0;
#X connect 30 0 68 0;
#X connect 31 0 41 0;
#X connect 32 0 71 0;
#X connect 33 0 32 0;
#X connect 34 0 32 0;
#X connect 35 0 158 0;
#X connect 36 0 19 0;
#X connect 37 0 32 0;
#X connect 38 0 39 0;
#X connect 39 0 132 0;
#X connect 40 0 0 0;
#X connect 42 0 18 0;
#X connect 43 0 44 0;
#X connect 44 0 133 0;
#X connect 45 0 135 0;
#X connect 49 0 113 0;
#X connect 50 0 60 0;
#X connect 51 0 0 1;
#X connect 53 0 70 0;
#X connect 54 0 70 0;
#X connect 55 0 70 0;
#X connect 56 0 151 0;
#X connect 58 0 57 0;
#X connect 60 0 59 0;
#X connect 61 0 78 0;
#X connect 62 0 43 0;
#X connect 63 0 96 0;
#X connect 66 0 67 0;
#X connect 67 0 65 1;
#X connect 68 0 69 0;
#X connect 68 1 65 0;
#X connect 68 2 66 0;
#X connect 70 0 58 0;
#X connect 70 0 72 0;
#X connect 71 0 2 0;
#X connect 72 0 52 0;
#X connect 73 0 72 1;
#X connect 76 0 75 0;
#X connect 76 0 131 0;
#X connect 77 0 30 0;
#X connect 78 0 36 0;
#X connect 78 1 19 0;
#X connect 79 0 33 0;
#X connect 80 0 81 0;
#X connect 81 0 79 0;
#X connect 81 1 33 0;
#X connect 82 0 119 0;
#X connect 83 0 82 0;
#X connect 84 0 163 0;
#X connect 85 0 86 0;
#X connect 85 0 123 0;
#X connect 85 1 88 0;
#X connect 87 0 85 0;
#X connect 87 1 91 0;
#X connect 88 0 90 0;
#X connect 88 0 122 0;
#X connect 89 0 83 0;
#X connect 89 1 88 1;
#X connect 91 0 89 0;
#X connect 92 0 112 0;
#X connect 92 1 93 0;
#X connect 95 0 50 0;
#X connect 96 0 97 0;
#X connect 96 1 38 0;
#X connect 97 0 125 0;
#X connect 98 0 100 0;
#X connect 99 0 125 0;
#X connect 100 0 99 0;
#X connect 101 0 73 0;
#X connect 102 0 82 1;
#X connect 111 0 113 1;
#X connect 112 0 94 0;
#X connect 113 0 95 0;
#X connect 113 0 124 0;
#X connect 114 0 115 0;
#X connect 115 0 126 0;
#X connect 115 1 116 0;
#X connect 116 0 120 0;
#X connect 119 0 85 1;
#X connect 119 0 117 0;
#X connect 120 0 119 1;
#X connect 121 0 119 1;
#X connect 125 0 95 1;
#X connect 126 0 128 0;
#X connect 127 0 119 1;
#X connect 128 0 121 0;
#X connect 128 1 127 0;
#X connect 134 0 23 0;
#X connect 135 0 136 0;
#X connect 135 1 26 0;
#X connect 136 0 134 1;
#X connect 137 0 138 0;
#X connect 138 0 134 1;
#X connect 139 0 140 0;
#X connect 140 0 138 0;
#X connect 141 0 142 0;
#X connect 142 0 111 0;
#X connect 143 0 144 1;
#X connect 144 0 134 0;
#X connect 145 0 146 0;
#X connect 146 0 143 0;
#X connect 147 0 148 1;
#X connect 148 0 87 0;
#X connect 148 0 118 0;
#X connect 149 0 150 0;
#X connect 150 0 147 0;
#X connect 151 0 70 0;
#X connect 153 0 151 1;
#X connect 156 0 31 0;
#X connect 158 0 157 0;
#X connect 162 0 163 1;
#X connect 163 0 148 0;
#X connect 164 0 162 0;
#X connect 167 0 164 0;
#X connect 168 0 176 0;
#X connect 169 0 170 0;
#X connect 170 0 174 0;
#X connect 172 0 173 0;
#X connect 173 0 171 0;
#X connect 174 0 171 0;
#X connect 175 0 177 0;
#X connect 175 1 172 0;
#X connect 176 0 22 0;
#X connect 177 0 174 1;
