#N canvas 534 113 762 633 10;
#X obj 96 6 bng 15 250 50 0 empty empty empty 17 7 0 10 -262144 -1
-1;
#X obj 54 51 timer;
#X floatatom 78 82 12 0 0 0 - - -;
#X obj 290 -44 tgl 15 0 empty ON empty 17 7 0 10 -262144 -1 -1 1 1
;
#X floatatom 94 134 5 0 0 0 - - -;
#X obj 58 159 -;
#X obj 58 188 moses 0;
#X obj 46 229 * -1;
#X text 132 133 Lista de tempos;
#X text 162 231 Valor de erro maximo;
#X floatatom 126 229 5 0 0 0 - - -;
#X obj 64 371 sel 1;
#X obj 64 323 <;
#X obj 150 467 print ERRADO;
#X obj 26 478 print CERTO;
#X obj 26 401 bng 15 250 50 0 empty empty empty 17 7 0 10 -262144 -1
-1;
#X obj 122 385 bng 15 250 50 0 empty empty empty 17 7 0 10 -262144
-1 -1;
#X obj 26 446 f;
#X obj 150 419 f;
#X obj 71 264 t f f;
#X obj 115 295 s \$0-ErrVal;
#X obj 173 346 r \$0-ErrVal;
#X obj 52 415 r \$0-ErrVal;
#X obj 611 11 f;
#X obj 611 39 + 1;
#X obj 614 64 print HitNr;
#X obj 575 -44 bng 15 250 50 0 empty empty empty 17 7 0 10 -262144
-1 -1;
#X msg 625 -44 0;
#X obj 545 295 textfile;
#X msg 545 115 read seq-\$1.txt;
#X obj 601 399 print \$1-TextFile;
#X obj 575 235 bng 15 250 50 0 empty empty empty 17 7 0 10 -262144
-1 -1;
#X obj 290 27 s StartSeq;
#X obj 566 140 r StartSeq;
#X msg 566 188 rewind \, bang;
#X obj 372 155 metro 1;
#X obj 372 233 f;
#X obj 372 261 + 1;
#X obj 372 110 tgl 15 0 empty ON empty 17 7 0 10 -262144 -1 -1 1 1
;
#X obj 427 164 r StartSeq;
#X obj 372 316 sel;
#X obj 372 348 s \$0-Next;
#X obj 622 218 r \$0-Next;
#X msg 420 192 0;
#X obj 290 1 metro 29952;
#X obj 335 458 r \$0-Next;
#X obj 335 485 bng 30 250 50 0 empty empty empty 17 7 0 10 -262144
-1 -1;
#X obj 545 90 loadbang;
#X obj 601 366 spigot;
#X obj 634 340 tgl 15 0 empty empty empty 17 7 0 10 -262144 -1 -1 0
1;
#X obj 54 -33 r StartSeq;
#X obj 486 451 tgl 15 0 empty ON empty 17 7 0 10 -262144 -1 -1 1 1
;
#X obj 486 503 bng 30 250 50 0 empty empty empty 17 7 0 10 -262144
-1 -1;
#X obj 486 477 metro 936;
#X obj 442 11 s ON;
#X obj 442 -17 tgl 15 0 empty empty empty 17 7 0 10 -262144 -1 -1 1
1;
#X obj 545 318 s \$0-PausaDur;
#X obj 387 289 r \$0-PausaDur;
#X obj 93 105 r \$0-PausaDur;
#X connect 0 0 1 1;
#X connect 1 0 2 0;
#X connect 1 0 5 0;
#X connect 3 0 44 0;
#X connect 4 0 5 1;
#X connect 5 0 6 0;
#X connect 6 0 7 0;
#X connect 6 1 19 0;
#X connect 7 0 19 0;
#X connect 10 0 12 1;
#X connect 11 0 15 0;
#X connect 11 1 16 0;
#X connect 12 0 11 0;
#X connect 15 0 17 0;
#X connect 16 0 18 0;
#X connect 17 0 14 0;
#X connect 18 0 13 0;
#X connect 19 0 12 0;
#X connect 19 1 20 0;
#X connect 21 0 18 1;
#X connect 22 0 17 1;
#X connect 23 0 24 0;
#X connect 24 0 23 1;
#X connect 24 0 25 0;
#X connect 26 0 23 0;
#X connect 27 0 23 1;
#X connect 28 0 48 0;
#X connect 28 0 56 0;
#X connect 29 0 28 0;
#X connect 31 0 28 0;
#X connect 33 0 34 0;
#X connect 34 0 28 0;
#X connect 35 0 36 0;
#X connect 36 0 37 0;
#X connect 37 0 36 1;
#X connect 37 0 40 0;
#X connect 38 0 35 0;
#X connect 39 0 43 0;
#X connect 40 0 41 0;
#X connect 42 0 28 0;
#X connect 43 0 36 1;
#X connect 44 0 32 0;
#X connect 45 0 46 0;
#X connect 47 0 29 0;
#X connect 48 0 30 0;
#X connect 49 0 48 1;
#X connect 50 0 1 0;
#X connect 51 0 53 0;
#X connect 53 0 52 0;
#X connect 55 0 54 0;
#X connect 57 0 40 1;
#X connect 58 0 4 0;
