#N canvas 347 81 978 649 10;
#X obj 277 296 bng 30 100 25 0 empty empty empty 17 7 0 10 -262144
-1 -1;
#X floatatom 184 89 5 0 0 0 - MaxErro-set -;
#X obj 184 111 s MaxErro;
#X obj 309 160 tgl 60 0 empty empty empty 17 7 0 10 -262144 -1 -1 1
1;
#X obj 277 276 r 1-Blink;
#X text 53 21 X-MAS TREE DRUMS;
#X text 65 36 JACK-THE-MAKER;
#X obj 426 276 r 2-Blink;
#X obj 409 160 tgl 60 0 empty empty empty 17 7 0 10 -262144 -1 -1 1
1;
#X obj 774 74 nbx 2 33 -1e+37 1e+37 0 0 empty BEAT empty 0 -8 0 30
-262144 -33289 -258113 0 256;
#X obj 9 456 array define relogios 4;
#X obj 523 159 tgl 60 0 empty empty empty 17 7 0 10 -262144 -1 -1 1
1;
#X obj 623 159 tgl 60 0 empty empty empty 17 7 0 10 -262144 -1 -1 1
1;
#X obj 569 276 r 3-Blink;
#X obj 724 276 r 4-Blink;
#N canvas 0 81 1366 687 SOM 0;
#X obj 16 327 catch~ sum;
#X obj 534 204 soundfiler;
#X obj 36 83 table chimes-L;
#X obj 35 110 table chimes-R;
#X obj 981 98 r 1-Blink;
#X obj 1044 96 r 2-Blink;
#X obj 1111 97 r 3-Blink;
#X obj 1181 98 r 4-Blink;
#X obj 1041 357 tgl 15 0 empty empty empty 17 7 0 10 -262144 -1 -1
0 1;
#X obj 1026 390 *~;
#X floatatom 1079 270 5 0 0 0 - - -;
#X obj 1142 186 vsl 15 128 0 1 0 0 empty empty empty 0 -9 0 10 -262144
-1 -1 0 1;
#X obj 246 82 table conga;
#X msg 568 175 read -resize conga-open.wav conga;
#X obj 1026 191 tabplay~ conga;
#X obj 506 44 loadbang;
#X obj 1026 542 throw~ conga;
#X obj 98 332 catch~ conga;
#X floatatom 245 440 0 0 120 0 - - -;
#X text 286 440 level \, dB;
#X floatatom 280 462 0 0 100 0 - - -;
#X text 321 462 liveness \, 0-100;
#X floatatom 315 486 4 0 5000 0 - - -;
#X floatatom 350 509 0 0 100 0 - - -;
#X text 363 484 crossover frequency \, Hz.;
#X text 386 511 HF damping \, percent;
#X obj 246 557 tgl 15 0 empty empty empty 17 7 0 10 -262144 -1 -1 1
1;
#X obj 174 597 *~;
#X obj 218 596 *~;
#X obj 80 593 dac~;
#X obj 720 669 r ON;
#X obj 1041 333 r SomCongas;
#X obj 938 46 r congahit;
#X obj 936 107 bng 15 250 50 0 empty empty empty 17 7 0 10 -262144
-1 -1;
#X obj 308 566 loadbang;
#X obj 175 535 rev3~ 100 59 3000 20;
#X obj 16 350 *~ 0.3;
#X msg 506 255 \; chimes-L normalize \; chimes-R normalize \;;
#X obj 407 582 env~;
#X obj 322 603 env~;
#X obj 322 645 sel 1;
#X obj 322 666 print peek;
#X floatatom 463 564 5 0 0 0 - - -;
#X obj 550 890 throw~ chimes-Le;
#X obj 676 891 throw~ chimes-Ri;
#X obj 185 350 catch~ chimes-Le;
#X obj 245 370 catch~ chimes-Ri;
#X msg 525 139 read -resize sleigh-short80bpm.wav chimes-L chimes-R
;
#X obj 676 827 *~;
#X obj 549 858 *~;
#X obj 691 768 line~;
#X msg 739 733 1 5;
#X msg 686 736 0 500;
#X msg 1222 203 0.4;
#X obj 720 692 sel 0 1;
#X obj 322 624 > 90;
#N canvas 1 81 1101 577 BELLS 0;
#X obj 292 160 s frequency;
#X obj 406 160 s duration;
#X floatatom 406 110 0 0 0 0 - - -;
#X obj 406 135 * 100;
#X obj 292 135 mtof;
#X floatatom 292 110 0 0 0 0 - - -;
#X text 444 100 duration in tenths;
#X text 446 116 of a second;
#X text 330 109 pitch;
#X obj 36 164 partial 1 1 0.56 0;
#X obj 311 27 loadbang;
#X msg 406 80 40;
#X obj 299 229 bng 25 250 50 0 empty empty empty 0 -6 0 8 -262144 -1
-1;
#X text 332 231 <-- click to play a note;
#X obj 299 265 s trigger;
#X obj 36 189 partial 0.67 0.9 0.56 1;
#X obj 36 214 partial 1 0.65 0.92 0;
#X obj 36 239 partial 1.8 0.55 0.92 1.7;
#X obj 36 264 partial 2.67 0.325 1.19 0;
#X obj 36 289 partial 1.67 0.35 1.7 0;
#X obj 36 314 partial 1.46 0.25 2 0;
#X obj 36 339 partial 1.33 0.2 2.74 0;
#X obj 36 364 partial 1.33 0.15 3 0;
#X obj 36 389 partial 1 0.1 3.76 0;
#X obj 36 414 partial 1.33 0.075 4.07 0;
#X msg 311 50 84;
#X obj 219 72 r frequency-s;
#X obj 515 16 r duration-s;
#X obj 497 355 f;
#X obj 497 383 + 1;
#X msg 512 327 -1;
#X obj 512 301 r reset-clocks;
#X obj 497 406 mod 8;
#X obj 973 451 bng 15 250 50 0 empty empty empty 17 7 0 10 -262144
-1 -1;
#X floatatom 574 416 5 0 0 0 - - -;
#X obj 497 441 sel 0 1 2 3 4 5 6 7;
#X msg 832 479 \; frequency-s 102 \; trigger bang \;;
#X msg 721 479 \; frequency-s 100 \; trigger bang \;;
#X msg 605 484 \; frequency-s 98 \; trigger bang \;;
#X msg 474 491 \; frequency-s 96 \; trigger bang;
#X msg 247 496 \; frequency-s 93 \; trigger bang \;;
#X msg 131 501 \; frequency-s 91 \; trigger bang \;;
#X msg 358 496 \; frequency-s 95 \; trigger bang \;;
#X msg 948 474 \; frequency-s 103 \; trigger bang \;;
#X obj 838 393 r Win;
#X connect 2 0 3 0;
#X connect 3 0 1 0;
#X connect 4 0 0 0;
#X connect 5 0 4 0;
#X connect 10 0 25 0;
#X connect 10 0 11 0;
#X connect 11 0 2 0;
#X connect 12 0 14 0;
#X connect 25 0 5 0;
#X connect 26 0 5 0;
#X connect 27 0 11 0;
#X connect 28 0 29 0;
#X connect 29 0 32 0;
#X connect 30 0 28 1;
#X connect 31 0 30 0;
#X connect 32 0 28 1;
#X connect 32 0 34 0;
#X connect 32 0 35 0;
#X connect 35 0 41 0;
#X connect 35 1 40 0;
#X connect 35 2 42 0;
#X connect 35 3 39 0;
#X connect 35 4 38 0;
#X connect 35 5 37 0;
#X connect 35 6 36 0;
#X connect 35 7 43 0;
#X connect 35 7 33 0;
#X restore 328 83 pd BELLS;
#X obj 407 603 > 90;
#X obj 401 649 sel 1;
#X obj 401 670 print peek;
#X obj 651 343 r BEAT;
#X obj 651 366 bang;
#X obj 651 462 f;
#X obj 651 485 + 1;
#X obj 651 508 mod 16;
#X obj 651 531 sel 0;
#X obj 701 342 r ON;
#X obj 701 365 sel 1;
#X text 707 498 Os Chimes so sicronizam cada 16;
#X text 707 519 Para Soar melhor no loop;
#X text 767 712 Fade out quando acaba;
#X obj 1042 467 tgl 15 0 empty empty empty 17 7 0 10 -262144 -1 -1
1 1;
#X obj 1027 500 *~;
#X obj 1042 413 r EasyMode;
#X obj 1042 436 == 0;
#X obj 136 84 table Estrela-L;
#X obj 136 113 table Estrela-R;
#X obj 506 67 t b b b b;
#X msg 579 96 read -resize estrela.wav Estrela-L Estrela-R;
#X obj 969 712 tabplay~ Estrela-L;
#X obj 943 861 throw~ chimes-Ri;
#X obj 968 765 throw~ chimes-Le;
#X obj 940 792 tabplay~ Estrela-R;
#X obj 942 647 r SomWin;
#X obj 942 679 t a a;
#X msg 1005 654 \; SomWin bang \;;
#X obj 1191 140 r ZeroHit;
#X obj 549 672 tabplay~ chimes-L;
#X obj 675 634 tabplay~ chimes-R;
#X obj 635 590 t b b;
#X obj 596 563 bng 15 250 50 0 empty empty empty 17 7 0 10 -262144
-1 -1;
#X msg 687 430 -1;
#X obj 701 388 t b b;
#X obj 185 371 *~ 0.85;
#X obj 246 394 *~ 0.85;
#X obj 1026 285 *~ 0.45;
#X obj 968 745 *~ 0.7;
#X obj 942 818 *~ 0.7;
#X connect 0 0 36 0;
#X connect 4 0 14 0;
#X connect 5 0 14 0;
#X connect 6 0 14 0;
#X connect 7 0 14 0;
#X connect 8 0 9 1;
#X connect 9 0 72 0;
#X connect 10 0 95 1;
#X connect 11 0 10 0;
#X connect 13 0 1 0;
#X connect 14 0 95 0;
#X connect 15 0 77 0;
#X connect 17 0 35 0;
#X connect 17 0 35 1;
#X connect 17 0 29 0;
#X connect 17 0 29 1;
#X connect 17 0 39 0;
#X connect 17 0 38 0;
#X connect 18 0 35 2;
#X connect 20 0 35 3;
#X connect 22 0 35 4;
#X connect 23 0 35 5;
#X connect 26 0 27 1;
#X connect 26 0 28 1;
#X connect 27 0 29 0;
#X connect 28 0 29 1;
#X connect 30 0 54 0;
#X connect 31 0 8 0;
#X connect 32 0 33 0;
#X connect 34 0 26 0;
#X connect 35 0 27 0;
#X connect 35 0 39 0;
#X connect 35 1 28 0;
#X connect 35 1 38 0;
#X connect 36 0 29 0;
#X connect 36 0 29 1;
#X connect 36 0 35 0;
#X connect 36 0 35 1;
#X connect 38 0 57 0;
#X connect 39 0 55 0;
#X connect 40 0 41 0;
#X connect 42 0 55 1;
#X connect 42 0 57 1;
#X connect 45 0 93 0;
#X connect 46 0 94 0;
#X connect 47 0 1 0;
#X connect 48 0 44 0;
#X connect 49 0 43 0;
#X connect 50 0 48 1;
#X connect 50 0 49 1;
#X connect 51 0 50 0;
#X connect 52 0 50 0;
#X connect 53 0 11 0;
#X connect 54 0 52 0;
#X connect 54 1 51 0;
#X connect 55 0 40 0;
#X connect 57 0 58 0;
#X connect 58 0 59 0;
#X connect 60 0 61 0;
#X connect 61 0 62 0;
#X connect 62 0 63 0;
#X connect 63 0 64 0;
#X connect 64 0 62 1;
#X connect 64 0 65 0;
#X connect 65 0 89 0;
#X connect 65 0 90 0;
#X connect 66 0 67 0;
#X connect 67 0 92 0;
#X connect 71 0 72 1;
#X connect 72 0 16 0;
#X connect 73 0 74 0;
#X connect 74 0 71 0;
#X connect 77 0 37 0;
#X connect 77 1 47 0;
#X connect 77 2 13 0;
#X connect 77 3 78 0;
#X connect 78 0 1 0;
#X connect 79 0 96 0;
#X connect 82 0 97 0;
#X connect 83 0 84 0;
#X connect 84 0 82 0;
#X connect 84 1 79 0;
#X connect 86 0 14 0;
#X connect 87 0 49 0;
#X connect 88 0 48 0;
#X connect 89 0 87 0;
#X connect 89 1 88 0;
#X connect 91 0 62 1;
#X connect 92 0 62 0;
#X connect 92 1 91 0;
#X connect 93 0 35 0;
#X connect 93 0 29 0;
#X connect 93 0 39 0;
#X connect 94 0 35 1;
#X connect 94 0 29 1;
#X connect 94 0 38 0;
#X connect 95 0 9 0;
#X connect 96 0 81 0;
#X connect 97 0 80 0;
#X restore 12 277 pd SOM;
#X obj 309 134 r Relogio-SET-1;
#X obj 409 134 r Relogio-SET-2;
#X obj 523 133 r Relogio-SET-3;
#X obj 623 133 r Relogio-SET-4;
#X obj 426 296 bng 30 100 25 0 empty empty empty 17 7 0 10 -262144
-1 -1;
#X obj 569 296 bng 30 100 25 0 empty empty empty 17 7 0 10 -262144
-1 -1;
#X obj 724 296 bng 30 100 25 0 empty empty empty 17 7 0 10 -262144
-1 -1;
#X obj 773 114 tgl 60 0 empty SomCongas-SET empty 17 7 0 10 -262144
-1 -1 0 1;
#X obj 773 181 s SomCongas;
#X text 852 85 BEAT;
#X obj 921 737 bng 15 250 50 0 empty empty empty 17 7 0 10 -262144
-1 -1;
#X obj 12 340 drum 1 0;
#X obj 11 371 drum 2 2;
#X obj 11 402 drum 3 4;
#X obj 11 431 drum 4 6;
#X obj 11 309 comunication;
#N canvas 39 167 1107 600 JOGO 1;
#X obj 15 32 loadbang;
#X obj 201 18 hradio 30 1 0 5 empty empty empty 0 -8 0 10 -262144 -1
-1 3;
#X obj 201 -95 f;
#X obj 201 -72 + 1;
#X obj 201 -49 mod 3;
#X obj 201 -26 + 1;
#X obj 201 54 t f b;
#X msg 228 98 \; ON 0 \; Relogio-SET-1 0 \; Relogio-SET-2 0 \; Relogio-SET-3
0 \; Relogio-SET-4 0 \;;
#X obj 201 220 pipe 1000;
#X obj 179 247 bng 15 250 50 0 empty empty empty 17 7 0 10 -262144
-1 -1;
#X msg 15 55 \; MaxErro-set 300 \; LoadLists 1 \; pd dsp 1 \; Relogio-SET-1
1 \; Relogio-SET-2 1 \; Relogio-SET-3 1 \; Relogio-SET-4 1 \; GameStart
stop \; SomCongas-SET 0 \;;
#X obj 827 -78 r PlayersNumber;
#X msg 846 0 \; Relogio-SET-4 1 \;;
#X obj 679 33 r GameStart;
#X obj 679 156 delay 48000;
#X msg 679 182 0;
#X obj 679 207 s ON;
#X obj 827 -25 sel 1 2;
#X obj 827 -52 pipe 300;
#X msg 827 47 \; Relogio-SET-1 1 \; Relogio-SET-4 1 \;;
#X obj 813 155 r ON;
#X obj 832 241 delay 6000;
#X msg 832 267 \; SomCongas-SET 0 \; GameStart stop \; GameStart bang
\;;
#X obj 813 178 sel 0 1;
#X msg 783 213 stop;
#X obj 881 119 r PlayersNumber;
#X obj 881 142 sel 1 2 3 4;
#X obj 19 275 array sum relogios;
#X floatatom 19 300 5 0 0 0 - - -;
#X obj 19 221 r EstrelaTest;
#X obj 19 322 == 4;
#X obj 19 345 s Estrela;
#X obj 381 444 t b b;
#X obj 381 467 timer;
#X floatatom 381 490 12 0 0 0 - - -;
#X obj 19 244 b;
#X obj 381 395 r BEAT;
#X obj 381 418 sel 2;
#N canvas 132 110 505 584 MOTOR 0;
#X obj 32 177 bng 30 250 50 0 empty empty empty 17 7 0 10 -262144 -1
-1;
#X obj 29 336 f;
#X obj 29 364 + 1;
#X floatatom 29 410 5 0 0 0 - - -;
#X obj 29 488 s BEAT;
#X obj 29 228 f;
#X obj 29 256 + 1;
#X obj 29 279 mod 2;
#X obj 29 302 sel 0;
#X obj 29 387 mod 8;
#X msg 117 234 -1;
#X obj 117 173 r reset-clocks;
#X obj 32 141 metro 0.5 80 permin;
#X obj 32 -12 inlet;
#X floatatom 97 359 5 0 0 0 - - -;
#X obj 97 335 r FullLenght;
#X text 137 363 Nomalmente 8;
#X text 136 383 Com 3 jogadores é 6;
#X obj 233 447 t f f;
#X obj 260 480 s pre-BEAT;
#X obj 233 505 pipe 5;
#X obj 297 513 r ChimesFadeFix;
#X obj 224 115 r PlayersNumber;
#X obj 224 161 sel 1;
#X obj 264 195 bang;
#X obj 29 452 +;
#X msg 265 230 0;
#X msg 212 231 2;
#X connect 0 0 5 0;
#X connect 1 0 2 0;
#X connect 2 0 9 0;
#X connect 3 0 25 0;
#X connect 5 0 6 0;
#X connect 6 0 7 0;
#X connect 7 0 8 0;
#X connect 7 0 5 1;
#X connect 8 0 1 0;
#X connect 9 0 1 1;
#X connect 9 0 3 0;
#X connect 10 0 5 1;
#X connect 10 0 1 1;
#X connect 11 0 10 0;
#X connect 12 0 0 0;
#X connect 13 0 12 0;
#X connect 14 0 9 1;
#X connect 15 0 14 0;
#X connect 18 0 20 0;
#X connect 18 1 19 0;
#X connect 21 0 20 1;
#X connect 22 0 23 0;
#X connect 23 0 27 0;
#X connect 23 1 24 0;
#X connect 24 0 26 0;
#X connect 25 0 4 0;
#X connect 26 0 25 1;
#X connect 27 0 25 1;
#X restore 403 310 pd MOTOR;
#X obj 403 244 tgl 50 0 empty ON empty 17 7 0 10 -262144 -1 -1 0 1
;
#X obj 403 192 r Finish;
#X msg 403 215 0;
#X obj 452 -44 r PlayersNumber;
#X obj 452 78 s FullLenght;
#X text 506 -13 Se forem 3 jogadores é mais curto;
#X obj 452 -12 sel 1 2;
#X msg 526 24 8;
#X msg 491 26 6;
#X msg 452 25 4;
#X obj 560 168 tgl 60 0 empty empty empty 17 7 0 10 -262144 -1 -1 1
1;
#X obj 560 140 r Estrela;
#X obj 560 373 sel 1;
#X obj 560 396 cyclone/onebang;
#X obj 647 369 r reset-clocks;
#X obj 560 421 delay 50;
#X obj 560 459 t b b;
#X obj 527 499 delay 700;
#X msg 481 554 \; Relogio-SET-1 1 \; Relogio-SET-2 1 \; Relogio-SET-3
1 \; Relogio-SET-4 1 \;;
#X obj 712 65 r EasyMode;
#X obj 712 88 == 0;
#X obj 679 116 spigot;
#X obj 593 284 r EasyMode;
#X obj 593 307 == 0;
#X obj 560 335 spigot;
#X msg 622 515 \; ON 0 \; GameStart stop \; Win bang \; SomWin bang
\; Finish bang \; 1-TestDropout stop \; 2-TestDropout stop \; 3-TestDropout
stop \; 4-TestDropout stop \; Relogio-SET-1 1 \; Relogio-SET-2 1 \;
Relogio-SET-3 1 \; Relogio-SET-4 1 \;;
#X obj 560 233 change;
#X obj 201 -127 inlet Bang começa o jogo;
#X text 244 -50 Escole a frase a tocar;
#X msg 35 424 \; LoadLists \$1 \; reset-clocks bang \; SomCongas-SET
1 \; ON 1 \;;
#X msg 201 254 \; SomCongas-SET 1 \; SeqNumber \$1;
#X text 200 301 Arranca a CongaZero;
#X msg 879 189 6000;
#X msg 926 188 9000;
#X msg 965 187 12000;
#X connect 0 0 10 0;
#X connect 1 0 6 0;
#X connect 2 0 3 0;
#X connect 3 0 4 0;
#X connect 4 0 2 1;
#X connect 4 0 5 0;
#X connect 5 0 1 0;
#X connect 6 0 8 0;
#X connect 6 1 7 0;
#X connect 8 0 69 0;
#X connect 8 0 9 0;
#X connect 11 0 18 0;
#X connect 13 0 60 0;
#X connect 14 0 15 0;
#X connect 15 0 16 0;
#X connect 17 0 19 0;
#X connect 17 1 12 0;
#X connect 18 0 17 0;
#X connect 20 0 23 0;
#X connect 21 0 22 0;
#X connect 23 0 24 0;
#X connect 23 1 21 0;
#X connect 24 0 21 0;
#X connect 25 0 26 0;
#X connect 26 0 71 0;
#X connect 26 1 72 0;
#X connect 26 2 73 0;
#X connect 26 3 73 0;
#X connect 27 0 28 0;
#X connect 28 0 30 0;
#X connect 29 0 35 0;
#X connect 30 0 31 0;
#X connect 32 0 33 0;
#X connect 32 1 33 1;
#X connect 33 0 34 0;
#X connect 35 0 27 0;
#X connect 36 0 37 0;
#X connect 37 0 32 0;
#X connect 39 0 38 0;
#X connect 40 0 41 0;
#X connect 41 0 39 0;
#X connect 42 0 45 0;
#X connect 45 0 48 0;
#X connect 45 1 47 0;
#X connect 45 2 46 0;
#X connect 46 0 43 0;
#X connect 47 0 43 0;
#X connect 48 0 43 0;
#X connect 49 0 65 0;
#X connect 50 0 49 0;
#X connect 51 0 52 0;
#X connect 52 0 54 0;
#X connect 53 0 52 1;
#X connect 54 0 55 0;
#X connect 55 0 56 0;
#X connect 55 1 64 0;
#X connect 56 0 57 0;
#X connect 58 0 59 0;
#X connect 59 0 60 1;
#X connect 60 0 14 0;
#X connect 61 0 62 0;
#X connect 62 0 63 1;
#X connect 63 0 51 0;
#X connect 65 0 63 0;
#X connect 66 0 2 0;
#X connect 71 0 21 1;
#X connect 72 0 21 1;
#X connect 73 0 21 1;
#X restore 63 276 pd JOGO;
#X obj 63 94 vradio 30 1 0 4 empty ElfControl empty 0 -8 0 10 -262144
-1 -1 2;
#X obj 90 246 s PlayersNumber;
#X obj 63 219 t b f;
#X text 95 130 2 PLAYER;
#X text 95 160 3 PLAYER;
#X text 95 191 4 PLAYER;
#X obj 469 55 tgl 60 0 empty empty empty 17 7 0 10 -262144 -1 -1 1
1;
#X obj 469 35 r Estrela;
#X obj 277 360 bng 30 100 25 0 empty empty empty 17 7 0 10 -262144
-1 -1;
#X obj 277 340 r 1-Hit;
#X obj 426 360 bng 30 100 25 0 empty empty empty 17 7 0 10 -262144
-1 -1;
#X obj 426 340 r 2-Hit;
#X obj 569 360 bng 30 100 25 0 empty empty empty 17 7 0 10 -262144
-1 -1;
#X obj 569 340 r 3-Hit;
#X obj 725 360 bng 30 100 25 0 empty empty empty 17 7 0 10 -262144
-1 -1;
#X obj 725 340 r 4-Hit;
#X obj 277 458 spigot;
#X obj 277 486 s 1-Blink;
#X obj 310 411 r EasyMode;
#X obj 310 431 tgl 15 0 empty empty empty 17 7 0 10 -262144 -1 -1 0
1;
#X obj 426 458 spigot;
#X obj 459 411 r EasyMode;
#X obj 459 431 tgl 15 0 empty empty empty 17 7 0 10 -262144 -1 -1 0
1;
#X obj 569 458 spigot;
#X obj 602 411 r EasyMode;
#X obj 602 431 tgl 15 0 empty empty empty 17 7 0 10 -262144 -1 -1 0
1;
#X obj 725 458 spigot;
#X obj 758 411 r EasyMode;
#X obj 758 431 tgl 15 0 empty empty empty 17 7 0 10 -262144 -1 -1 0
1;
#X obj 426 486 s 2-Blink;
#X obj 569 486 s 3-Blink;
#X obj 725 486 s 4-Blink;
#N canvas 385 143 980 590 DrumZero 0;
#X obj 374 276 textfile;
#X msg 417 155 read seq-\$1.txt;
#X obj 440 230 bng 15 250 50 0 empty empty empty 17 7 0 10 -262144
-1 -1;
#X obj 168 151 metro 1;
#X obj 233 258 f;
#X obj 233 286 + 1;
#X obj 233 320 sel;
#X msg 248 233 0;
#X obj 374 411 spigot;
#X obj 407 391 tgl 15 0 empty empty empty 17 7 0 10 -262144 -1 -1 0
1;
#X obj 284 232 bng 15 250 50 0 empty empty empty 17 7 0 10 -262144
-1 -1;
#X obj 232 346 t b b;
#X text 431 276 Carrega a sequencia para Piscar;
#X text 496 302 Acaba a Sequencia;
#X obj 456 348 bng 15 250 50 0 empty empty empty 17 7 0 10 -262144
-1 -1;
#X obj 344 -69 tgl 15 0 empty empty empty 17 7 0 10 -262144 -1 -1 1
1;
#X obj 299 -49 spigot 1;
#X obj 344 -118 r EasyMode;
#X obj 344 -94 == 0;
#X obj 216 403 bng 15 250 50 0 empty empty empty 17 7 0 10 -262144
-1 -1;
#X obj 259 426 s dZeroNext;
#X obj 449 186 r dZeroNext;
#X msg 549 190 rewind;
#X obj 374 433 print Zero;
#X obj 270 -24 bng 15 250 50 0 empty empty empty 17 7 0 10 -262144
-1 -1;
#X obj 198 451 s ZeroHit;
#X obj 299 -178 r SeqNumber;
#X obj 299 18 t b b b f;
#X obj 531 422 r SeqNumber;
#X obj 516 477 f;
#X msg 516 524 \; LoadLists \$1 \; reset-clocks bang \; ON 1 \;;
#X floatatom 401 -23 5 0 0 0 - - -;
#X obj 168 123 tgl 15 0 empty empty empty 17 7 0 10 -262144 -1 -1 1
1;
#X obj 168 89 loadbang;
#X obj 603 467 tgl 15 0 empty empty empty 17 7 0 10 -262144 -1 -1 0
1;
#X obj 558 487 spigot 1;
#X obj 603 442 r EasyMode;
#X obj 531 445 t f f;
#X obj 516 378 delay 1125;
#X connect 0 0 6 1;
#X connect 0 0 8 0;
#X connect 0 1 14 0;
#X connect 1 0 0 0;
#X connect 2 0 0 0;
#X connect 3 0 4 0;
#X connect 4 0 5 0;
#X connect 5 0 4 1;
#X connect 5 0 6 0;
#X connect 6 0 11 0;
#X connect 7 0 4 1;
#X connect 8 0 23 0;
#X connect 9 0 8 1;
#X connect 11 0 19 0;
#X connect 11 1 20 0;
#X connect 14 0 38 0;
#X connect 15 0 16 1;
#X connect 16 0 27 0;
#X connect 17 0 18 0;
#X connect 18 0 15 0;
#X connect 19 0 25 0;
#X connect 21 0 0 0;
#X connect 22 0 0 0;
#X connect 24 0 27 0;
#X connect 26 0 16 0;
#X connect 27 0 7 0;
#X connect 27 1 2 0;
#X connect 27 2 22 0;
#X connect 27 3 1 0;
#X connect 28 0 37 0;
#X connect 29 0 30 0;
#X connect 31 0 27 0;
#X connect 32 0 3 0;
#X connect 33 0 32 0;
#X connect 34 0 35 1;
#X connect 35 0 30 0;
#X connect 36 0 34 0;
#X connect 37 0 29 1;
#X connect 37 1 35 0;
#X connect 38 0 29 0;
#X restore 87 340 pd DrumZero;
#N canvas 1 81 450 300 TECLADO 0;
#X obj 9 92 bng 30 250 50 0 empty empty empty 17 7 0 10 -262144 -1
-1;
#X obj 9 144 s 1-Hit;
#X obj 9 124 cyclone/speedlim 100;
#X obj 159 92 bng 30 250 50 0 empty empty empty 17 7 0 10 -262144 -1
-1;
#X obj 159 124 cyclone/speedlim 100;
#X obj 159 144 s 2-Hit;
#X obj 299 92 bng 30 250 50 0 empty empty empty 17 7 0 10 -262144 -1
-1;
#X obj 299 124 cyclone/speedlim 100;
#X obj 449 92 bng 30 250 50 0 empty empty empty 17 7 0 10 -262144 -1
-1;
#X obj 449 124 cyclone/speedlim 100;
#X obj 299 144 s 3-Hit;
#X obj 449 144 s 4-Hit;
#X obj 9 52 key;
#X obj 9 72 sel 113;
#X obj 159 52 key;
#X obj 159 70 sel 119;
#X obj 299 52 key;
#X obj 299 73 sel 101;
#X obj 449 52 key;
#X obj 449 72 sel 114;
#X connect 0 0 2 0;
#X connect 2 0 1 0;
#X connect 3 0 4 0;
#X connect 4 0 5 0;
#X connect 6 0 7 0;
#X connect 7 0 10 0;
#X connect 8 0 9 0;
#X connect 9 0 11 0;
#X connect 12 0 13 0;
#X connect 13 0 0 0;
#X connect 14 0 15 0;
#X connect 15 0 3 0;
#X connect 16 0 17 0;
#X connect 17 0 6 0;
#X connect 18 0 19 0;
#X connect 19 0 8 0;
#X restore 87 375 pd TECLADO;
#X text 65 50 NOV - DEZ 2019;
#X connect 1 0 2 0;
#X connect 4 0 0 0;
#X connect 7 0 20 0;
#X connect 13 0 21 0;
#X connect 14 0 22 0;
#X connect 16 0 3 0;
#X connect 17 0 8 0;
#X connect 18 0 11 0;
#X connect 19 0 12 0;
#X connect 23 0 24 0;
#X connect 33 0 35 0;
#X connect 35 0 32 0;
#X connect 35 1 34 0;
#X connect 40 0 39 0;
#X connect 41 0 49 0;
#X connect 42 0 41 0;
#X connect 43 0 53 0;
#X connect 44 0 43 0;
#X connect 45 0 56 0;
#X connect 46 0 45 0;
#X connect 47 0 59 0;
#X connect 48 0 47 0;
#X connect 49 0 50 0;
#X connect 51 0 52 0;
#X connect 52 0 49 1;
#X connect 53 0 62 0;
#X connect 54 0 55 0;
#X connect 55 0 53 1;
#X connect 56 0 63 0;
#X connect 57 0 58 0;
#X connect 58 0 56 1;
#X connect 59 0 64 0;
#X connect 60 0 61 0;
#X connect 61 0 59 1;
