#N canvas 274 81 1366 687 10;
#X obj 181 642 bng 30 100 25 0 empty empty empty 17 7 0 10 -262144
-1 -1;
#X floatatom 218 91 5 0 0 0 - MaxErro-set -;
#X obj 218 113 s MaxErro;
#X obj 375 -38 loadbang;
#X obj 181 509 bng 30 250 50 0 empty empty empty 17 7 0 10 -262144
-1 -1;
#X obj 181 573 s 1-Hit;
#X obj 215 213 tgl 60 0 empty empty empty 17 7 0 10 -262144 -1 -1 1
1;
#X obj 181 615 r 1-Blink;
#X obj 181 547 cyclone/speedlim 100;
#X text 36 -159 X-MAS TREE DRUMS;
#X text 35 -144 JACK-THE-MAKER;
#X text 36 -131 NOV 2019;
#X obj 331 509 bng 30 250 50 0 empty empty empty 17 7 0 10 -262144
-1 -1;
#X obj 331 547 cyclone/speedlim 100;
#X obj 331 571 s 2-Hit;
#X obj 331 611 r 2-Blink;
#X obj 315 213 tgl 60 0 empty empty empty 17 7 0 10 -262144 -1 -1 1
1;
#X obj 12 301 nbx 2 33 -1e+37 1e+37 0 0 empty BEAT empty 0 -8 0 30
-262144 -33289 -258113 5 256;
#X obj 196 24 array define relogios 4;
#X obj 19 445 array sum relogios;
#X floatatom 19 470 5 0 0 0 - - -;
#X obj 429 212 tgl 60 0 empty empty empty 17 7 0 10 -262144 -1 -1 1
1;
#X obj 529 212 tgl 60 0 empty empty empty 17 7 0 10 -262144 -1 -1 1
1;
#X obj 1181 89 tgl 60 0 empty empty empty 17 7 0 10 -262144 -1 -1 1
1;
#X obj 471 509 bng 30 250 50 0 empty empty empty 17 7 0 10 -262144
-1 -1;
#X obj 471 547 cyclone/speedlim 100;
#X obj 621 509 bng 30 250 50 0 empty empty empty 17 7 0 10 -262144
-1 -1;
#X obj 621 547 cyclone/speedlim 100;
#X obj 471 573 s 3-Hit;
#X obj 471 608 r 3-Blink;
#X obj 621 571 s 4-Hit;
#X obj 621 610 r 4-Blink;
#X obj 173 425 key;
#X obj 173 457 sel 113;
#X obj 323 432 key;
#X obj 323 455 sel 119;
#X obj 463 434 key;
#X obj 463 458 sel 101;
#X obj 613 434 key;
#X obj 613 457 sel 114;
#X obj 19 391 r EstrelaTest;
#X obj 19 492 == 4;
#X obj 1181 61 r Estrela;
#X obj 19 515 s Estrela;
#N canvas 0 81 1366 687 SOM 0;
#X obj 36 165 catch~ sum;
#X obj 534 164 soundfiler;
#X obj 36 83 table chimes-L;
#X obj 35 110 table chimes-R;
#X obj 981 98 r 1-Blink;
#X obj 1044 96 r 2-Blink;
#X obj 1111 97 r 3-Blink;
#X obj 1181 98 r 4-Blink;
#X obj 1041 357 tgl 15 0 empty empty empty 17 7 0 10 -262144 -1 -1
0 1;
#X obj 1026 390 *~;
#X floatatom 1079 270 5 0 0 0 - - -;
#X obj 1142 186 vsl 15 128 0 1 0 0 empty empty empty 0 -9 0 10 -262144
-1 -1 0 1;
#X obj 139 81 table conga;
#X msg 568 135 read -resize conga-open.wav conga;
#X obj 1026 191 tabplay~ conga;
#X obj 506 44 loadbang;
#X obj 551 825 tabread4~ chimes-L;
#X msg 651 559 0;
#X obj 552 665 *~ 2.88e+06;
#X obj 552 642 phasor~ 0.0166667;
#X obj 569 709 tabread4~ chimes-R;
#X obj 1025 422 throw~ conga;
#X obj 118 170 catch~ conga;
#X floatatom 196 328 0 0 120 0 - - -;
#X text 237 328 level \, dB;
#X floatatom 231 350 0 0 100 0 - - -;
#X text 272 350 liveness \, 0-100;
#X floatatom 266 374 4 0 5000 0 - - -;
#X floatatom 301 397 0 0 100 0 - - -;
#X text 314 372 crossover frequency \, Hz.;
#X text 337 399 HF damping \, percent;
#X obj 197 445 tgl 15 0 empty empty empty 17 7 0 10 -262144 -1 -1 1
1;
#X obj 125 485 *~;
#X obj 169 484 *~;
#X obj 31 481 dac~;
#X obj 720 669 r ON;
#X obj 1041 333 r SomCongas;
#X obj 938 46 r congahit;
#X obj 936 107 bng 15 250 50 0 empty empty empty 17 7 0 10 -262144
-1 -1;
#X obj 259 454 loadbang;
#X obj 126 423 rev3~ 100 59 3000 20;
#X obj 36 188 *~ 0.3;
#X msg 506 215 \; chimes-L normalize \; chimes-R normalize \;;
#X obj 506 67 t b b b;
#X obj 358 470 env~;
#X obj 273 491 env~;
#X obj 273 533 sel 1;
#X obj 273 554 print peek;
#X obj 205 209 *~ 0.9;
#X obj 266 232 *~ 0.9;
#X floatatom 414 452 5 0 0 0 - - -;
#X obj 550 890 throw~ chimes-Le;
#X obj 676 891 throw~ chimes-Ri;
#X obj 205 188 catch~ chimes-Le;
#X obj 265 208 catch~ chimes-Ri;
#X msg 525 99 read -resize sleigh-short80bpm.wav chimes-L chimes-R
;
#X obj 676 827 *~;
#X obj 549 858 *~;
#X obj 691 768 line~;
#X msg 739 733 1 5;
#X msg 686 736 0 500;
#X msg 1222 203 0.4;
#X obj 720 692 sel 0 1;
#X obj 273 512 > 90;
#X obj 1026 285 *~ 0.4;
#N canvas 1 81 1101 577 BELLS 0;
#X obj 292 160 s frequency;
#X obj 406 160 s duration;
#X floatatom 406 110 0 0 0 0 - - -;
#X obj 406 135 * 100;
#X obj 292 135 mtof;
#X floatatom 292 110 0 0 0 0 - - -;
#X text 444 100 duration in tenths;
#X text 446 116 of a second;
#X text 330 109 pitch;
#X obj 36 164 partial 1 1 0.56 0;
#X obj 311 27 loadbang;
#X msg 406 80 40;
#X obj 299 229 bng 25 250 50 0 empty empty empty 0 -6 0 8 -262144 -1
-1;
#X text 332 231 <-- click to play a note;
#X obj 299 265 s trigger;
#X obj 36 189 partial 0.67 0.9 0.56 1;
#X obj 36 214 partial 1 0.65 0.92 0;
#X obj 36 239 partial 1.8 0.55 0.92 1.7;
#X obj 36 264 partial 2.67 0.325 1.19 0;
#X obj 36 289 partial 1.67 0.35 1.7 0;
#X obj 36 314 partial 1.46 0.25 2 0;
#X obj 36 339 partial 1.33 0.2 2.74 0;
#X obj 36 364 partial 1.33 0.15 3 0;
#X obj 36 389 partial 1 0.1 3.76 0;
#X obj 36 414 partial 1.33 0.075 4.07 0;
#X msg 311 50 84;
#X obj 219 72 r frequency-s;
#X obj 515 16 r duration-s;
#X obj 497 355 f;
#X obj 497 383 + 1;
#X msg 512 327 -1;
#X obj 512 301 r reset-clocks;
#X obj 497 406 mod 8;
#X obj 973 451 bng 15 250 50 0 empty empty empty 17 7 0 10 -262144
-1 -1;
#X floatatom 574 416 5 0 0 0 - - -;
#X obj 497 441 sel 0 1 2 3 4 5 6 7;
#X msg 832 479 \; frequency-s 102 \; trigger bang \;;
#X msg 721 479 \; frequency-s 100 \; trigger bang \;;
#X msg 605 484 \; frequency-s 98 \; trigger bang \;;
#X msg 474 491 \; frequency-s 96 \; trigger bang;
#X msg 247 496 \; frequency-s 93 \; trigger bang \;;
#X msg 131 501 \; frequency-s 91 \; trigger bang \;;
#X msg 358 496 \; frequency-s 95 \; trigger bang \;;
#X msg 948 474 \; frequency-s 103 \; trigger bang \;;
#X obj 838 393 r Win;
#X connect 2 0 3 0;
#X connect 3 0 1 0;
#X connect 4 0 0 0;
#X connect 5 0 4 0;
#X connect 10 0 25 0;
#X connect 10 0 11 0;
#X connect 11 0 2 0;
#X connect 12 0 14 0;
#X connect 25 0 5 0;
#X connect 26 0 5 0;
#X connect 27 0 11 0;
#X connect 28 0 29 0;
#X connect 29 0 32 0;
#X connect 30 0 28 1;
#X connect 31 0 30 0;
#X connect 32 0 28 1;
#X connect 32 0 34 0;
#X connect 32 0 35 0;
#X connect 35 0 41 0;
#X connect 35 1 40 0;
#X connect 35 2 42 0;
#X connect 35 3 39 0;
#X connect 35 4 38 0;
#X connect 35 5 37 0;
#X connect 35 6 36 0;
#X connect 35 7 43 0;
#X connect 35 7 33 0;
#X restore 233 84 pd BELLS;
#X obj 358 491 > 90;
#X obj 352 537 sel 1;
#X obj 352 558 print peek;
#X obj 651 343 r BEAT;
#X obj 651 366 bang;
#X obj 651 462 f;
#X obj 651 485 + 1;
#X obj 651 508 mod 16;
#X obj 651 531 sel 0;
#X obj 687 376 r ON;
#X msg 687 430 -1;
#X obj 687 399 sel 1;
#X obj 687 558 bng 15 250 50 0 empty empty empty 17 7 0 10 -262144
-1 -1;
#X text 707 498 Os Chimes so sicronizam cada 16;
#X text 707 519 Para Soar melhor no loop;
#X text 767 712 Fade out quando acaba;
#X connect 0 0 41 0;
#X connect 4 0 14 0;
#X connect 5 0 14 0;
#X connect 6 0 14 0;
#X connect 7 0 14 0;
#X connect 8 0 9 1;
#X connect 9 0 21 0;
#X connect 10 0 64 1;
#X connect 11 0 10 0;
#X connect 13 0 1 0;
#X connect 14 0 64 0;
#X connect 15 0 43 0;
#X connect 16 0 57 0;
#X connect 17 0 19 1;
#X connect 18 0 20 0;
#X connect 18 0 16 0;
#X connect 19 0 18 0;
#X connect 20 0 56 0;
#X connect 22 0 40 0;
#X connect 22 0 40 1;
#X connect 22 0 34 0;
#X connect 22 0 34 1;
#X connect 22 0 45 0;
#X connect 22 0 44 0;
#X connect 23 0 40 2;
#X connect 25 0 40 3;
#X connect 27 0 40 4;
#X connect 28 0 40 5;
#X connect 31 0 32 1;
#X connect 31 0 33 1;
#X connect 32 0 34 0;
#X connect 33 0 34 1;
#X connect 35 0 62 0;
#X connect 36 0 8 0;
#X connect 37 0 38 0;
#X connect 39 0 31 0;
#X connect 40 0 32 0;
#X connect 40 0 45 0;
#X connect 40 1 33 0;
#X connect 40 1 44 0;
#X connect 41 0 34 0;
#X connect 41 0 34 1;
#X connect 41 0 40 0;
#X connect 41 0 40 1;
#X connect 43 0 42 0;
#X connect 43 1 55 0;
#X connect 43 2 13 0;
#X connect 44 0 66 0;
#X connect 45 0 63 0;
#X connect 46 0 47 0;
#X connect 48 0 40 0;
#X connect 48 0 34 0;
#X connect 48 0 45 0;
#X connect 49 0 40 1;
#X connect 49 0 34 1;
#X connect 49 0 44 0;
#X connect 50 0 63 1;
#X connect 50 0 66 1;
#X connect 53 0 48 0;
#X connect 54 0 49 0;
#X connect 55 0 1 0;
#X connect 56 0 52 0;
#X connect 57 0 51 0;
#X connect 58 0 56 1;
#X connect 58 0 57 1;
#X connect 59 0 58 0;
#X connect 60 0 58 0;
#X connect 61 0 11 0;
#X connect 62 0 60 0;
#X connect 62 1 59 0;
#X connect 63 0 46 0;
#X connect 64 0 9 0;
#X connect 66 0 67 0;
#X connect 67 0 68 0;
#X connect 69 0 70 0;
#X connect 70 0 71 0;
#X connect 71 0 72 0;
#X connect 72 0 73 0;
#X connect 73 0 71 1;
#X connect 73 0 74 0;
#X connect 74 0 17 0;
#X connect 74 0 78 0;
#X connect 75 0 77 0;
#X connect 76 0 71 1;
#X connect 77 0 76 0;
#X restore 71 -40 pd SOM;
#X obj 18 606 t b b;
#X obj 18 629 timer;
#X floatatom 18 652 12 0 0 0 - - -;
#X obj 215 187 r Relogio-SET-1;
#X obj 315 187 r Relogio-SET-2;
#X obj 429 186 r Relogio-SET-3;
#X obj 529 186 r Relogio-SET-4;
#X obj 331 635 bng 30 100 25 0 empty empty empty 17 7 0 10 -262144
-1 -1;
#X obj 471 634 bng 30 100 25 0 empty empty empty 17 7 0 10 -262144
-1 -1;
#X obj 621 633 bng 30 100 25 0 empty empty empty 17 7 0 10 -262144
-1 -1;
#X obj 816 335 tgl 60 0 empty SomCongas-SET empty 17 7 0 10 -262144
-1 -1 0 1;
#X obj 816 402 s SomCongas;
#X obj 19 414 b;
#N canvas 132 110 505 584 MOTOR 0;
#X obj 32 177 bng 30 250 50 0 empty empty empty 17 7 0 10 -262144 -1
-1;
#X obj 29 336 f;
#X obj 29 364 + 1;
#X floatatom 29 410 5 0 0 0 - - -;
#X obj 29 488 s BEAT;
#X obj 29 228 f;
#X obj 29 256 + 1;
#X obj 29 279 mod 2;
#X obj 29 302 sel 0;
#X obj 29 387 mod 8;
#X msg 117 234 -1;
#X obj 117 173 r reset-clocks;
#X obj 32 141 metro 0.5 80 permin;
#X obj 32 -12 inlet;
#X floatatom 97 359 5 0 0 0 - - -;
#X obj 97 335 r FullLenght;
#X text 137 363 Nomalmente 8;
#X text 136 383 Com 3 jogadores é 6;
#X obj 233 447 t f f;
#X obj 260 480 s pre-BEAT;
#X obj 233 505 pipe 5;
#X obj 297 513 r ChimesFadeFix;
#X obj 224 115 r PlayersNumber;
#X obj 224 161 sel 1;
#X obj 264 195 bang;
#X obj 29 452 +;
#X msg 265 230 0;
#X msg 212 231 2;
#X connect 0 0 5 0;
#X connect 1 0 2 0;
#X connect 2 0 9 0;
#X connect 3 0 25 0;
#X connect 5 0 6 0;
#X connect 6 0 7 0;
#X connect 7 0 8 0;
#X connect 7 0 5 1;
#X connect 8 0 1 0;
#X connect 9 0 1 1;
#X connect 9 0 3 0;
#X connect 10 0 5 1;
#X connect 10 0 1 1;
#X connect 11 0 10 0;
#X connect 12 0 0 0;
#X connect 13 0 12 0;
#X connect 14 0 9 1;
#X connect 15 0 14 0;
#X connect 18 0 20 0;
#X connect 18 1 19 0;
#X connect 21 0 20 1;
#X connect 22 0 23 0;
#X connect 23 0 27 0;
#X connect 23 1 24 0;
#X connect 24 0 26 0;
#X connect 25 0 4 0;
#X connect 26 0 25 1;
#X connect 27 0 25 1;
#X restore 16 271 pd MOTOR;
#X obj 16 205 tgl 50 0 empty ON empty 17 7 0 10 -262144 -1 -1 0 1;
#X text 90 312 BEAT;
#X obj 561 -52 hradio 30 1 0 5 empty empty empty 0 -8 0 10 -262144
-1 -1 2;
#X obj 721 341 r congahit;
#X obj 631 410 bng 15 250 50 0 empty empty empty 17 7 0 10 -262144
-1 -1;
#X obj 653 410 bng 15 250 50 0 empty empty empty 17 7 0 10 -262144
-1 -1;
#X obj 687 409 bng 15 250 50 0 empty empty empty 17 7 0 10 -262144
-1 -1;
#X obj 709 409 bng 15 250 50 0 empty empty empty 17 7 0 10 -262144
-1 -1;
#X obj 640 378 cyclone/gate 4;
#X obj 525 281 r BEAT;
#X obj 525 304 sel 0 2 4 6;
#X msg 525 338 1;
#X msg 559 339 2;
#X msg 595 339 3;
#X msg 629 340 4;
#X obj 921 557 bng 15 250 50 0 empty empty empty 17 7 0 10 -262144
-1 -1;
#X obj 18 557 r BEAT;
#X obj 1181 154 sel 1;
#X obj 16 153 r Finish;
#X msg 16 176 0;
#X obj 797 -108 vradio 30 1 0 4 empty empty empty 0 -8 0 10 -262144
-1 -1 1;
#X obj 797 57 s PlayersNumber;
#X obj 80 23 drum 1 0;
#X obj 79 54 drum 2 2;
#X obj 79 85 drum 3 4;
#X obj 79 114 drum 4 6;
#X obj 797 17 t b f;
#X obj 953 -143 r PlayersNumber;
#X msg 972 -65 \; Relogio-SET-4 1 \;;
#X obj 561 -165 f;
#X obj 561 -142 + 1;
#X obj 561 -119 mod 3;
#X obj 561 -96 + 1;
#X obj 1181 177 cyclone/onebang;
#X obj 1262 138 r reset-clocks;
#X obj 1181 217 delay 50;
#X obj 1181 240 t b b;
#X obj 1148 280 delay 700;
#X msg 1102 335 \; Relogio-SET-1 1 \; Relogio-SET-2 1 \; Relogio-SET-3
1 \; Relogio-SET-4 1 \;;
#X text 830 -99 1 PLAYER;
#X text 829 -69 2 PLAYER;
#X text 830 -39 3 PLAYER;
#X text 832 -10 4 PLAYER;
#X obj 63 -11 comunication;
#X obj 1177 -160 r PlayersNumber;
#X obj 1177 -38 s FullLenght;
#X msg 1243 296 \; ON 0 \; GameStart stop \; Win bang \; Finish bang
\; 1-TestDropout stop \; 2-TestDropout stop \; 3-TestDropout stop \;
4-TestDropout stop \; Relogio-SET-1 1 \; Relogio-SET-2 1 \; Relogio-SET-3
1 \; Relogio-SET-4 1 \;;
#X obj 561 -16 t f b;
#X msg 657 28 \; ON 0 \; Relogio-SET-1 0 \; Relogio-SET-2 0 \; Relogio-SET-3
0 \; Relogio-SET-4 0 \;;
#X obj 511 20 pipe 1000;
#X msg 511 51 \; LoadLists \$1 \; reset-clocks bang \; SomCongas-SET
1 \; ON 1 \;;
#X obj 710 155 r GameStart;
#X obj 710 188 delay 48000;
#X msg 710 214 0;
#X obj 710 239 s ON;
#X text 1231 -129 Se forem 3 jogadores é mais curto;
#X obj 1177 -128 sel 1 2;
#X msg 1251 -92 8;
#X msg 1216 -90 6;
#X msg 1177 -91 4;
#X obj 489 47 bng 15 250 50 0 empty empty empty 17 7 0 10 -262144 -1
-1;
#X msg 375 -15 \; MaxErro-set 300 \; LoadLists 1 \; pd dsp 1 \; Relogio-SET-1
1 \; Relogio-SET-2 1 \; Relogio-SET-3 1 \; Relogio-SET-4 1 \; GameStart
stop \; SomCongas-SET 0 \;;
#X obj 953 -90 sel 1 2;
#X obj 953 -117 pipe 300;
#X msg 953 -18 \; Relogio-SET-1 1 \; Relogio-SET-4 1 \;;
#X obj 939 90 r ON;
#X obj 958 176 delay 6000;
#X msg 958 202 \; SomCongas-SET 0 \; GameStart stop \; GameStart bang
\;;
#X obj 939 113 sel 0 1;
#X msg 909 148 stop;
#X obj 1007 54 r PlayersNumber;
#X msg 1052 123 4500;
#X obj 1007 77 sel 1 2 3 4;
#X msg 1091 122 6000;
#X obj 18 580 sel 2;
#X msg 1005 124 3000;
#X connect 1 0 2 0;
#X connect 3 0 120 0;
#X connect 4 0 8 0;
#X connect 7 0 0 0;
#X connect 8 0 5 0;
#X connect 12 0 13 0;
#X connect 13 0 14 0;
#X connect 15 0 52 0;
#X connect 19 0 20 0;
#X connect 20 0 41 0;
#X connect 23 0 76 0;
#X connect 24 0 25 0;
#X connect 25 0 28 0;
#X connect 26 0 27 0;
#X connect 27 0 30 0;
#X connect 29 0 53 0;
#X connect 31 0 54 0;
#X connect 32 0 33 0;
#X connect 33 0 4 0;
#X connect 34 0 35 0;
#X connect 35 0 12 0;
#X connect 36 0 37 0;
#X connect 37 0 24 0;
#X connect 38 0 39 0;
#X connect 39 0 26 0;
#X connect 40 0 57 0;
#X connect 41 0 43 0;
#X connect 42 0 23 0;
#X connect 45 0 46 0;
#X connect 45 1 46 1;
#X connect 46 0 47 0;
#X connect 48 0 6 0;
#X connect 49 0 16 0;
#X connect 50 0 21 0;
#X connect 51 0 22 0;
#X connect 55 0 56 0;
#X connect 57 0 19 0;
#X connect 59 0 58 0;
#X connect 61 0 106 0;
#X connect 62 0 67 1;
#X connect 63 0 4 0;
#X connect 64 0 12 0;
#X connect 65 0 24 0;
#X connect 66 0 26 0;
#X connect 67 0 63 0;
#X connect 67 1 64 0;
#X connect 67 2 65 0;
#X connect 67 3 66 0;
#X connect 68 0 69 0;
#X connect 69 0 70 0;
#X connect 69 1 71 0;
#X connect 69 2 72 0;
#X connect 69 3 73 0;
#X connect 70 0 67 0;
#X connect 71 0 67 0;
#X connect 72 0 67 0;
#X connect 73 0 67 0;
#X connect 75 0 133 0;
#X connect 76 0 92 0;
#X connect 77 0 78 0;
#X connect 78 0 59 0;
#X connect 79 0 85 0;
#X connect 85 0 88 0;
#X connect 85 1 80 0;
#X connect 86 0 122 0;
#X connect 88 0 89 0;
#X connect 89 0 90 0;
#X connect 90 0 88 1;
#X connect 90 0 91 0;
#X connect 91 0 61 0;
#X connect 92 0 94 0;
#X connect 93 0 92 1;
#X connect 94 0 95 0;
#X connect 95 0 96 0;
#X connect 95 1 105 0;
#X connect 96 0 97 0;
#X connect 103 0 115 0;
#X connect 106 0 108 0;
#X connect 106 1 107 0;
#X connect 108 0 109 0;
#X connect 108 0 119 0;
#X connect 110 0 111 0;
#X connect 111 0 112 0;
#X connect 112 0 113 0;
#X connect 115 0 118 0;
#X connect 115 1 117 0;
#X connect 115 2 116 0;
#X connect 116 0 104 0;
#X connect 117 0 104 0;
#X connect 118 0 104 0;
#X connect 121 0 123 0;
#X connect 121 1 87 0;
#X connect 122 0 121 0;
#X connect 124 0 127 0;
#X connect 125 0 126 0;
#X connect 127 0 128 0;
#X connect 127 1 125 0;
#X connect 128 0 125 0;
#X connect 129 0 131 0;
#X connect 130 0 125 1;
#X connect 131 0 134 0;
#X connect 131 1 130 0;
#X connect 131 2 132 0;
#X connect 131 3 132 0;
#X connect 132 0 125 1;
#X connect 133 0 45 0;
#X connect 134 0 125 1;
